<?xml version="1.0" standalone="no"?>
<!DOCTYPE svg PUBLIC "-//W3C//DTD SVG 20010904//EN"
 "http://www.w3.org/TR/2001/REC-SVG-20010904/DTD/svg10.dtd">
<svg version="1.0" xmlns="http://www.w3.org/2000/svg"
 width="575.000000pt" height="575.000000pt" viewBox="0 0 575.000000 575.000000"
 preserveAspectRatio="xMidYMid meet">
<metadata>
Created by potrace 1.11, written by Peter Selinger 2001-2013
</metadata>
<g transform="translate(0.000000,575.000000) scale(0.100000,-0.100000)"
fill="#000000" stroke="none">
<path d="M4311 5343 c-58 -177 -166 -288 -316 -327 -118 -31 -237 -18 -536 58
-426 108 -817 100 -1192 -24 -231 -77 -417 -185 -574 -333 -260 -245 -377
-548 -344 -885 37 -367 206 -628 551 -851 193 -125 360 -201 850 -386 552
-208 709 -283 887 -424 135 -108 231 -249 270 -401 25 -98 22 -330 -6 -435
-36 -138 -93 -239 -185 -331 -122 -122 -274 -196 -469 -230 -121 -21 -427 -15
-532 11 -273 66 -433 143 -635 306 -229 184 -467 487 -610 776 -30 61 -58 112
-62 112 -5 1 -8 -324 -8 -721 0 -397 4 -718 8 -713 5 6 14 30 21 55 34 116
120 235 209 287 155 91 381 85 648 -17 272 -104 384 -132 597 -151 229 -19
524 19 768 101 524 174 857 543 970 1072 26 121 36 366 20 478 -60 410 -333
750 -780 974 -147 74 -258 114 -573 205 -315 92 -494 152 -626 210 -253 112
-433 253 -506 400 -50 100 -61 150 -60 276 0 111 2 126 32 200 115 287 441
465 854 465 426 0 833 -248 1122 -684 66 -99 155 -267 192 -361 15 -38 31 -74
35 -80 5 -5 9 315 9 713 0 397 -2 722 -4 722 -2 0 -13 -30 -25 -67z m-2564
-1080 c-3 -10 -5 -4 -5 12 0 17 2 24 5 18 2 -7 2 -21 0 -30z m2 -114 c1 -25
10 -81 21 -125 78 -304 310 -534 710 -703 114 -48 272 -102 695 -236 801 -255
1102 -506 1156 -962 14 -113 1 -261 -35 -401 -24 -92 -45 -140 -32 -72 58 303
2 566 -165 777 -175 219 -453 359 -1248 628 -495 167 -619 223 -786 355 -152
121 -240 243 -296 410 -31 90 -33 104 -35 260 -2 102 0 155 5 140 5 -14 9 -46
10 -71z"/>
<path d="M2763 4961 c-66 -11 -60 -18 23 -26 172 -16 366 -78 562 -180 172
-90 276 -168 433 -324 139 -139 251 -281 340 -428 77 -128 75 -106 -7 62 -59
121 -182 307 -271 408 -296 336 -750 541 -1080 488z"/>
<path d="M1165 4210 c-23 -37 -47 -201 -52 -355 -8 -260 27 -427 129 -628 133
-260 322 -430 688 -619 193 -99 316 -152 700 -299 401 -154 649 -267 770 -349
68 -47 157 -140 194 -203 86 -147 114 -363 70 -557 l-5 -25 15 26 c24 42 55
167 62 249 13 153 -44 321 -152 447 -57 66 -179 158 -290 219 -126 68 -272
131 -609 261 -485 187 -791 328 -970 447 -110 73 -283 243 -349 344 -93 141
-154 287 -193 465 -14 65 -18 125 -17 292 0 117 5 229 11 253 11 41 10 52 -2
32z"/>
<path d="M1157 1870 c-34 -269 -53 -876 -38 -1228 15 -362 20 -375 46 -133 9
85 20 267 24 405 9 252 -2 843 -18 953 l-8 58 -6 -55z"/>
<path d="M1950 700 c79 -70 316 -166 530 -214 249 -55 620 -77 805 -47 230 37
486 129 658 238 57 36 39 39 -29 4 -76 -38 -265 -103 -379 -129 -224 -53 -463
-71 -680 -53 -290 24 -518 74 -757 165 -195 74 -188 72 -148 36z"/>
</g>
</svg>
